HIERARCHY
ROOT joint_Root
{
	OFFSET 0.0 0.0 0.0
	CHANNELS 6 Xposition Yposition Zposition Zrotation Xrotation Yrotation 
	JOINT Hips
	{
		OFFSET -0.726466 93.3139 -2.00062
		CHANNELS 6 Xposition Yposition Zposition Zrotation Xrotation Yrotation 
		JOINT Spine
		{
			OFFSET 15.7357 0.0 0.0
			CHANNELS 6 Xposition Yposition Zposition Zrotation Xrotation Yrotation 
			JOINT Chest
			{
				OFFSET 8.98455 -0.406207 0.0
				CHANNELS 6 Xposition Yposition Zposition Zrotation Xrotation Yrotation 
				JOINT Neck
				{
					OFFSET 16.3773 0.0 0.0
					CHANNELS 6 Xposition Yposition Zposition Zrotation Xrotation Yrotation 
					JOINT Head
					{
						OFFSET 6.45672 0.0 0.0
						CHANNELS 6 Xposition Yposition Zposition Zrotation Xrotation Yrotation 
						End Site
						{
							OFFSET 0.0 0.0 0.0
						}
					}
				}
				JOINT Shoulder_L
				{
					OFFSET 12.9942 -0.242716 4.98039
					CHANNELS 6 Xposition Yposition Zposition Zrotation Xrotation Yrotation 
					JOINT UpperArm_L
					{
						OFFSET 5.34809 0.0 0.0
						CHANNELS 6 Xposition Yposition Zposition Zrotation Xrotation Yrotation 
						JOINT LowerArm_L
						{
							OFFSET 24.3286 1.87007e-05 0.0
							CHANNELS 6 Xposition Yposition Zposition Zrotation Xrotation Yrotation 
							JOINT Hand_L
							{
								OFFSET 22.2916 0.0 0.0
								CHANNELS 6 Xposition Yposition Zposition Zrotation Xrotation Yrotation 
								End Site
								{
									OFFSET 0.0 0.0 0.0
								}
							}
						}
					}
				}
				JOINT Shoulder_R
				{
					OFFSET 12.9945 -0.242716 -4.98039
					CHANNELS 6 Xposition Yposition Zposition Zrotation Xrotation Yrotation 
					JOINT UpperArm_R
					{
						OFFSET -5.34813 0.0 0.0
						CHANNELS 6 Xposition Yposition Zposition Zrotation Xrotation Yrotation 
						JOINT LowerArm_R
						{
							OFFSET -24.3289 0.000322201 0.0
							CHANNELS 6 Xposition Yposition Zposition Zrotation Xrotation Yrotation 
							JOINT Hand_R
							{
								OFFSET -22.2915 -0.000108084 0.0
								CHANNELS 6 Xposition Yposition Zposition Zrotation Xrotation Yrotation 
								End Site
								{
									OFFSET 0.0 0.0 0.0
								}
							}
						}
					}
				}
			}
		}
		JOINT UpperLeg_L
		{
			OFFSET -2.19248 -6.46944 0.0
			CHANNELS 6 Xposition Yposition Zposition Zrotation Xrotation Yrotation 
			JOINT LowerLeg_L
			{
				OFFSET 39.0811 0.0 -1.23785e-05
				CHANNELS 6 Xposition Yposition Zposition Zrotation Xrotation Yrotation 
				JOINT Foot_L
				{
					OFFSET 40.9854 0.0 -1.26872e-05
					CHANNELS 6 Xposition Yposition Zposition Zrotation Xrotation Yrotation 
					JOINT Toes_L
					{
						OFFSET 11.7543 0.0 0.0
						CHANNELS 6 Xposition Yposition Zposition Zrotation Xrotation Yrotation 
						End Site
						{
							OFFSET 0.0 0.0 0.0
						}
					}
				}
			}
		}
		JOINT UpperLeg_R
		{
			OFFSET -2.19251 6.46944 0.0
			CHANNELS 6 Xposition Yposition Zposition Zrotation Xrotation Yrotation 
			JOINT LowerLeg_R
			{
				OFFSET -39.0811 -0.00228153 -0.0401928
				CHANNELS 6 Xposition Yposition Zposition Zrotation Xrotation Yrotation 
				JOINT Foot_R
				{
					OFFSET -40.9854 0.0 0.0
					CHANNELS 6 Xposition Yposition Zposition Zrotation Xrotation Yrotation 
					JOINT Toes_R
					{
						OFFSET -11.7543 0.0 0.0
						CHANNELS 6 Xposition Yposition Zposition Zrotation Xrotation Yrotation 
						End Site
						{
							OFFSET 0.0 0.0 0.0
						}
					}
				}
			}
		}
	}
}
MOTION
Frames:	4
Frame Time:	0.0333333
0.000000 0.000000 0.000000 0.000000 0.000000 -0.000000 -2.950230 92.163000 -1.377820 87.556000 -0.796216 1.871840 15.735700 0.000005 -0.000001 66.081200 86.693800 -62.628300 8.984550 -0.406207 -0.000000 -1.623400 -2.963000 6.863340 16.377300 -0.000001 -0.000001 -1.058530 -2.009180 0.868079 6.456720 -0.000001 -0.000000 -1.772880 -1.134650 8.676050 12.994200 -0.242716 4.980390 -85.791800 -9.180260 -65.241200 5.348090 -0.000007 -0.000001 -69.630000 -58.071500 -100.842000 24.328600 0.000019 0.000005 5.476260 3.494240 -57.554400 22.291600 -0.000001 0.000005 20.213300 5.581670 -10.302000 12.994500 -0.242716 -4.980390 89.801100 0.536792 -69.671300 -5.348130 -0.000001 -0.000004 -38.112200 76.393500 -8.541110 -24.328900 0.000322 -0.000009 18.676000 1.638660 -85.165300 -22.291500 -0.000108 -0.000004 34.519300 5.678660 -23.097200 -2.192480 -6.469440 -0.000000 -168.028000 -14.289800 -2.427550 39.081100 -0.000007 -0.000012 -0.148703 0.435098 18.869000 40.985400 -0.000006 -0.000013 -7.275320 3.343950 -62.608000 11.754300 -0.000000 0.000003 -0.000024 -0.000292 -16.589000 -2.192510 6.469440 -0.000001 176.861000 19.577800 178.021000 -39.081100 -0.002282 -0.040193 -0.034913 0.108663 19.385500 -40.985400 0.000008 0.000006 -1.498030 1.593400 -64.238200 -11.754300 -0.000006 -0.000006 -0.006398 -0.074405 -19.601600
0.000000 0.000000 0.000000 0.000000 0.000000 -0.000000 -2.950640 92.161600 -1.403940 87.550900 -0.767525 1.860370 15.735700 0.000005 -0.000001 65.720900 86.672500 -62.244800 8.984550 -0.406207 -0.000000 -1.599150 -3.019600 6.909680 16.377300 -0.000001 -0.000001 -1.057520 -2.006030 0.815025 6.456720 -0.000001 -0.000000 -1.755460 -1.119360 8.548190 12.994200 -0.242716 4.980390 -85.789200 -9.193760 -65.259200 5.348090 -0.000007 -0.000001 -69.419800 -58.200900 -100.460000 24.328600 0.000019 0.000005 5.455730 3.467720 -57.653700 22.291600 -0.000001 0.000005 20.270300 5.583210 -10.385400 12.994500 -0.242716 -4.980390 89.803500 0.529785 -69.652800 -5.348130 -0.000001 -0.000004 -38.041600 76.300100 -8.604410 -24.328900 0.000322 -0.000009 18.601200 1.625250 -85.184100 -22.291500 -0.000108 -0.000004 34.293400 5.678320 -23.189700 -2.192480 -6.469440 -0.000000 -168.023000 -14.303100 -2.481760 39.081100 -0.000007 -0.000012 -0.150766 0.440381 18.899000 40.985400 -0.000006 -0.000013 -7.271710 3.370300 -62.595600 11.754300 -0.000000 0.000003 -0.000022 -0.000276 -16.588400 -2.192510 6.469440 -0.000001 176.872000 19.568300 177.981000 -39.081100 -0.002282 -0.040193 -0.034860 0.108342 19.413800 -40.985400 0.000008 0.000006 -1.453200 1.590760 -64.243800 -11.754300 -0.000006 -0.000006 -0.006331 -0.073811 -19.577400
0.000000 0.000000 0.000000 0.000000 0.000000 -0.000000 -2.947790 92.167400 -1.426320 87.558700 -0.773388 1.846610 15.735700 0.000005 -0.000001 65.703300 86.661200 -62.226700 8.984550 -0.406207 -0.000000 -1.579070 -3.030180 6.910820 16.377300 -0.000001 -0.000001 -1.097840 -2.034200 0.798242 6.456720 -0.000001 -0.000000 -1.724340 -1.128850 8.523250 12.994200 -0.242716 4.980390 -85.802800 -9.177670 -65.292400 5.348090 -0.000007 -0.000001 -69.150700 -58.334400 -100.184000 24.328600 0.000019 0.000005 5.522640 3.511180 -57.649200 22.291600 -0.000001 0.000005 20.206700 5.582820 -10.364400 12.994500 -0.242716 -4.980390 89.781300 0.588890 -69.623100 -5.348130 -0.000001 -0.000004 -37.984900 76.250200 -8.668340 -24.328900 0.000322 -0.000009 18.675500 1.649270 -85.134100 -22.291500 -0.000108 -0.000004 34.300300 5.678310 -23.198800 -2.192480 -6.469440 -0.000000 -168.055000 -14.269100 -2.508590 39.081100 -0.000007 -0.000012 -0.148828 0.435184 18.880300 40.985400 -0.000006 -0.000013 -7.266080 3.323410 -62.573300 11.754300 -0.000000 0.000003 -0.000022 -0.000277 -16.588400 -2.192510 6.469440 -0.000001 176.875000 19.581100 177.954000 -39.081100 -0.002282 -0.040193 -0.033947 0.105832 19.400100 -40.985400 0.000008 0.000006 -1.422760 1.605670 -64.220200 -11.754300 -0.000006 -0.000006 -0.006476 -0.075098 -19.629900
0.000000 0.000000 0.000000 0.000000 0.000000 -0.000000 -2.949220 92.166500 -1.456970 87.571600 -0.798988 1.878370 15.735700 0.000005 -0.000001 65.935200 86.640100 -62.453000 8.984550 -0.406207 -0.000000 -1.529470 -3.021710 6.923560 16.377300 -0.000001 -0.000001 -1.096110 -2.072110 0.805908 6.456720 -0.000001 -0.000000 -1.791160 -1.168270 8.453710 12.994200 -0.242716 4.980390 -85.807600 -9.173870 -65.308000 5.348090 -0.000007 -0.000001 -69.092300 -58.391600 -100.051000 24.328600 0.000019 0.000005 5.548210 3.527550 -57.649300 22.291600 -0.000001 0.000005 20.179700 5.581440 -10.289400 12.994500 -0.242716 -4.980390 89.784900 0.578110 -69.593900 -5.348130 -0.000001 -0.000004 -37.751500 76.215700 -8.977950 -24.328900 0.000322 -0.000009 18.719500 1.682260 -85.049700 -22.291500 -0.000108 -0.000004 34.183900 5.678250 -23.214200 -2.192480 -6.469440 -0.000000 -168.047000 -14.317800 -2.487120 39.081100 -0.000007 -0.000012 -0.149375 0.436877 18.876600 40.985400 -0.000006 -0.000013 -7.264980 3.366300 -62.548000 11.754300 -0.000000 0.000003 -0.000024 -0.000292 -16.589000 -2.192510 6.469440 -0.000001 176.867000 19.527000 177.947000 -39.081100 -0.002282 -0.040193 -0.035017 0.108697 19.428900 -40.985400 0.000008 0.000006 -1.487590 1.561620 -64.211100 -11.754300 -0.000006 -0.000006 -0.006578 -0.075999 -19.666600
